<svg xmlns="http://www.w3.org/2000/svg" viewBox="0 0 20 25"><defs><style>.cls-1{fill:#fc0018;fill-rule:evenodd;}</style></defs><title>Alfa</title><g id="Слой_2" data-name="Слой 2"><g id="Слой_1-2" data-name="Слой 1"><g id="alfabank_copy-3" data-name="alfabank copy-3"><path id="Rounded_Rectangle_230-6" data-name="Rounded Rectangle 230-6" class="cls-1" d="M18.34,17.93,15.45,19a.37.37,0,0,1-.47-.23L13.48,15h-7L5,18.81a.38.38,0,0,1-.47.23L1.65,18a.38.38,0,0,1-.24-.47h0L7.24,1.84h0a3,3,0,0,1,5.49,0h0l5.84,15.62a.36.36,0,0,1-.23.47ZM10.44,5.81h0L10,4.49h0L7.35,12h5.27ZM1,22H19a1,1,0,0,1,1,1v1a1,1,0,0,1-1,1H1a1,1,0,0,1-1-1V23A1,1,0,0,1,1,22Z"/></g></g></g></svg>
