<svg xmlns="http://www.w3.org/2000/svg" viewBox="0 0 48 32"><defs><style>.cls-1{fill:none;stroke:#505050;stroke-miterlimit:10;stroke-width:2px;}</style></defs><g id="Layer_2" data-name="Layer 2"><g id="icons"><path class="cls-1" d="M31,9h7.94a2,2,0,0,1,1.66.87L44,16h1a2,2,0,0,1,2,2.21V25a2,2,0,0,1-2,2H43"/><polyline class="cls-1" points="15 27 31 27 31 1 1 1 1 27 7 27"/><path class="cls-1" d="M43,27a4,4,0,1,1-4-4A4,4,0,0,1,43,27Z"/><path class="cls-1" d="M15,27a4,4,0,1,1-4-4A4,4,0,0,1,15,27Z"/><line class="cls-1" x1="31" y1="27" x2="35" y2="27"/><polyline class="cls-1" points="33 17 40 17 42 16 44 16"/></g></g></svg>
