<svg width="24" height="24" viewBox="0 0 24 24" fill="none" xmlns="http://www.w3.org/2000/svg">
<g clip-path="url(#clip0_1_783)">
<path fill-rule="evenodd" clip-rule="evenodd" d="M12 0C8.0305 0 3.39624 2.39683 3.39624 9.15215C3.39624 15.6996 10.8924 23.3438 11.2112 23.6658C11.3142 23.7708 11.4372 23.8542 11.5729 23.9112C11.7086 23.9681 11.8542 23.9975 12.0014 23.9975C12.1485 23.9975 12.2942 23.9681 12.4299 23.9112C12.5655 23.8542 12.6885 23.7708 12.7916 23.6658C13.1085 23.3443 20.6061 15.6996 20.6061 9.15215C20.6038 2.4 15.97 0 12 0ZM12 21.1807C10.1398 19.1022 5.64318 13.6157 5.64318 9.1517C5.64318 2.79034 10.5088 2.29585 12.0005 2.29585C13.4921 2.29585 18.3578 2.78989 18.3578 9.1517C18.3578 13.6094 13.8598 19.1017 12 21.182V21.1807ZM12 4.21132C11.0981 4.19198 10.2109 4.44174 9.45162 4.92874C8.69229 5.41575 8.09525 6.11792 7.73667 6.94567C7.37809 7.77342 7.27423 8.68923 7.43833 9.57626C7.60244 10.4633 8.02707 11.2813 8.65805 11.926C9.28903 12.5707 10.0978 13.0128 10.9811 13.1959C11.8644 13.379 12.7822 13.2948 13.6175 12.9541C14.4527 12.6134 15.1675 12.0316 15.6707 11.2829C16.1739 10.5342 16.4427 9.65257 16.4427 8.75049C16.454 7.55988 15.9926 6.4134 15.1597 5.56248C14.3269 4.71156 13.1906 4.22566 12 4.21132ZM12 11.5675C11.4403 11.5796 10.8897 11.4247 10.4185 11.1225C9.9472 10.8203 9.57664 10.3845 9.35407 9.87086C9.1315 9.35718 9.067 8.78884 9.1688 8.23834C9.2706 7.68785 9.53409 7.18016 9.92565 6.78005C10.3172 6.37994 10.8191 6.10555 11.3672 5.99187C11.9154 5.8782 12.485 5.93041 13.0034 6.14183C13.5217 6.35325 13.9654 6.7143 14.2777 7.17892C14.59 7.64354 14.7568 8.19066 14.7568 8.75049C14.764 9.48942 14.4777 10.201 13.9609 10.7292C13.4441 11.2574 12.7389 11.5586 12 11.5675Z" fill="#63B700"/>
</g>
<defs>
<clipPath id="clip0_1_783">
<rect width="24" height="24" fill="white"/>
</clipPath>
</defs>
</svg>
