<svg width="36" height="10" viewBox="0 0 36 10" fill="none" xmlns="http://www.w3.org/2000/svg">
<g clip-path="url(#clip0_2_264)">
<path fill-rule="evenodd" clip-rule="evenodd" d="M20.76 9.03696V3.66501H20.533L18.652 8.17197C18.5371 8.42932 18.3502 8.64793 18.1139 8.80142C17.8775 8.95491 17.6018 9.03672 17.32 9.03696H14.795V-0.00802526H17.795V5.36301H18.033L19.933 0.850984L19.948 0.816987C20.0675 0.570674 20.254 0.362982 20.486 0.217622C20.718 0.0722614 20.9862 -0.00492242 21.26 -0.00503454H23.785V9.03696H20.762H20.76ZM9.79199 3.66501H9.54797L7.80798 9.03696H5.73596L4 3.66501H3.758V9.03696H0.781982V-0.00802526H3.758C4.12551 -0.012379 4.48476 0.100838 4.78339 0.315095C5.08201 0.529352 5.30436 0.833413 5.41797 1.18295L6.64099 5.36398H6.89801L8.12299 1.18295C8.23746 0.832182 8.46125 0.527347 8.7616 0.31302C9.06194 0.098692 9.42306 -0.0138395 9.79199 -0.00802526H12.768V9.03696H9.79199V3.66501ZM34.346 5.538C33.7379 5.90036 33.036 6.07436 32.329 6.038H28.801V9.038H25.801V4.00595H35.754C35.4455 4.64371 34.9558 5.17628 34.346 5.53696V5.538Z" fill="#52B460"/>
<path fill-rule="evenodd" clip-rule="evenodd" d="M35.701 3.01202H30.289C27.817 3.01202 25.761 1.70499 25.328 -0.0100098H32.351C34.241 -0.0100098 35.773 1.11301 35.773 2.49701C35.7731 2.67119 35.7488 2.84454 35.701 3.01202V3.01202Z" fill="#1BA1D7"/>
</g>
<defs>
<clipPath id="clip0_2_264">
<rect width="35" height="9.031" fill="white" transform="translate(0.781982)"/>
</clipPath>
</defs>
</svg>

