<svg width="90.000000" height="90.000000" viewBox="0 0 90 90" fill="none" xmlns="http://www.w3.org/2000/svg" xmlns:xlink="http://www.w3.org/1999/xlink">
	<desc>
			Created with Pixso.
	</desc>
	<defs>
		<filter id="filter_1_276_dd" x="-0.419983" y="-0.310059" width="90.000000" height="90.000000" filterUnits="userSpaceOnUse" color-interpolation-filters="sRGB">
			<feFlood flood-opacity="0" result="BackgroundImageFix"/>
			<feBlend mode="normal" in="SourceGraphic" in2="BackgroundImageFix" result="shape"/>
			<feColorMatrix in="SourceAlpha" type="matrix" values="0 0 0 0 0 0 0 0 0 0 0 0 0 0 0 0 0 0 127 0" result="hardAlpha"/>
			<feOffset dx="0" dy="0"/>
			<feGaussianBlur stdDeviation="0"/>
			<feComposite in2="hardAlpha" operator="arithmetic" k2="-1" k3="1"/>
			<feColorMatrix type="matrix" values="0 0 0 0 0.93333 0 0 0 0 0.93333 0 0 0 0 0.93333 0 0 0 1 0"/>
			<feBlend mode="normal" in2="shape" result="effect_innerShadow_1"/>
		</filter>
		<clipPath id="clip1_277">
			<rect id="SVG" width="60.000000" height="60.000000" transform="translate(14.580017 14.689941)" fill="white" fill-opacity="0"/>
		</clipPath>
		<clipPath id="clip1_276">
			<rect id="div#iwo95hff1_2" rx="45.000000" width="90.000000" height="90.000000" transform="translate(-0.419983 -0.310059)" fill="white" fill-opacity="0"/>
		</clipPath>
	</defs>
	<g filter="url(#filter_1_276_dd)">
		<rect id="div#iwo95hff1_2" rx="45.000000" width="90.000000" height="90.000000" transform="translate(-0.419983 -0.310059)" fill="#FFFFFF" fill-opacity="0.002000"/>
		<g clip-path="url(#clip1_276)">
			<g clip-path="url(#clip1_277)">
				<path id="Vector" d="M48.23 54.4L50.03 53.36C50.6 53.03 51.7 52.87 52.36 53.2L54.46 56.81M52.36 53.2L54.16 52.15C55.01 51.65 56.42 51.88 57.01 52.9L58.59 55.6M57.01 52.9L58.82 51.84C59.66 51.35 61.08 51.58 61.67 52.59L67.15 61.97C68.22 63.8 67.06 65.95 67.77 67.16M50.33 58.01L45.07 49C44.78 48.54 44.32 48.22 43.8 48.09C43.28 47.97 42.72 48.05 42.26 48.32C41.79 48.59 41.45 49.03 41.3 49.55C41.16 50.07 41.22 50.62 41.47 51.1L48.83 63.72C48.76 63.94 48.65 64.15 48.49 64.33C48.34 64.51 48.15 64.65 47.93 64.74C47.72 64.83 47.48 64.88 47.25 64.87C47.01 64.87 46.78 64.81 46.57 64.7L43.81 63.3C41.21 62.16 39.65 64.56 40.16 65.43C40.16 65.43 46.62 70.22 47.37 70.61C48.35 71.11 52.31 72.51 54.04 73.43M28.9 33.47L31.41 35.98L35.17 30.97M28.9 43.49L31.41 46L35.17 40.99M28.9 53.51L31.41 56.02L35.17 51.01M56.46 47.96L56.46 20.95L51.14 " stroke="#FFB500" stroke-opacity="1.000000" stroke-width="2.505089" stroke-linejoin="round"/>
				<path id="Vector" d="M26.71 20.95L21.39 20.95L21.39 66.04L34.86 66.04M40.18 32.22L47.69 32.22M40.18 42.24L47.69 42.24M41.58 17.04C40.88 16.33 39.92 15.94 38.92 15.94C37.93 15.94 36.97 16.33 36.27 17.04C35.56 17.74 35.17 18.7 35.17 19.7L32.66 19.7C32 19.7 31.36 19.96 30.89 20.43C30.42 20.9 30.16 21.54 30.16 22.2L30.16 24.71L47.69 24.71L47.69 22.2C47.69 21.54 47.43 20.9 46.96 20.43C46.49 19.96 45.85 19.7 45.19 19.7L42.68 19.7C42.68 18.7 42.28 17.74 41.58 17.04Z" stroke="#FFB500" stroke-opacity="1.000000" stroke-width="2.505089" stroke-linejoin="round"/>
			</g>
		</g>
	</g>
</svg>
