<svg width="64" height="64" viewBox="0 0 64 64" fill="none" xmlns="http://www.w3.org/2000/svg">
<rect width="64" height="64" fill="#F7931E"/>
<path fill-rule="evenodd" clip-rule="evenodd" d="M39.1107 25.5485C39.1107 29.3422 35.9142 32.4282 31.9819 32.4282C28.0504 32.4282 24.8531 29.3422 24.8531 25.5485C24.8531 21.7535 28.0504 18.6667 31.9819 18.6667C35.9142 18.6667 39.1107 21.7535 39.1107 25.5485ZM34.9336 25.5485C34.9336 23.9773 33.6096 22.6996 31.9819 22.6996C30.3555 22.6996 29.0302 23.9773 29.0302 25.5485C29.0302 27.1184 30.3555 28.3969 31.9819 28.3969C33.6096 28.3969 34.9336 27.1184 34.9336 25.5485Z" fill="white"/>
<path d="M39.024 36.39C37.735 37.1715 36.3355 37.7257 34.8844 38.0448L38.8696 41.8921C39.686 42.6785 39.686 43.9557 38.8696 44.7429C38.054 45.5302 36.7322 45.5302 35.9175 44.7429L31.9993 40.9624L28.0845 44.7429C27.6763 45.1361 27.1414 45.3329 26.6065 45.3329C26.0725 45.3329 25.5384 45.1361 25.1302 44.7429C24.3147 43.9557 24.3147 42.6793 25.1294 41.8921L29.115 38.0448C27.6639 37.7257 26.2644 37.1707 24.9754 36.39C23.9999 35.7963 23.7069 34.5524 24.3215 33.61C24.9344 32.6663 26.2235 32.3822 27.2007 32.9759C30.1191 34.748 33.8786 34.7484 36.7987 32.9759C37.7759 32.3822 39.0645 32.6663 39.6787 33.61C40.2934 34.5516 39.9995 35.7963 39.024 36.39Z" fill="white"/>
</svg>

