<svg xmlns="http://www.w3.org/2000/svg" viewBox="0 0 48 42.13"><defs><style>.cls-1{fill:none;stroke:#505050;stroke-miterlimit:10;stroke-width:2px;}</style></defs><g id="Layer_2" data-name="Layer 2"><g id="icons"><path class="cls-1" d="M11.29,23.24c-1.69,2.11-4.22,5.64-4,8.34.22,2.4,1.68,4.73,4,5.18L33.5,41.05"/><path class="cls-1" d="M16.4,16.13c1.88-2.49,6.6-8,6.6-12v-3l24,3v3c0,9-17.54,19.84-17.53,28.74a5.27,5.27,0,0,0,4,5.18A3.77,3.77,0,0,0,38,37.52,10.68,10.68,0,0,0,37.74,35L32,33.84"/><path class="cls-1" d="M2.17,10.37A3.26,3.26,0,0,0,1,13L14.45,26.4a8.65,8.65,0,0,0,6,2.22,8.65,8.65,0,0,0-2.22-6L4.83,9.15A3.25,3.25,0,0,0,2.24,10.3Z"/><line class="cls-1" x1="6.98" y1="11.22" x2="3.16" y2="15.04"/><path class="cls-1" d="M24.62,16.91l-.59.87c-.59.86-.27,1.73.83,1.73h2A4.56,4.56,0,0,0,30,17.78l.18-.26c.46-.67.33-1.27-.34-1.48l-2.69-.85c-.67-.21-.82-.81-.36-1.48l.18-.26a4.56,4.56,0,0,1,3.19-1.74h2c1.1,0,1.4.87.81,1.74l-.59.86"/><line class="cls-1" x1="31.19" y1="11.71" x2="32.97" y2="9.11"/><line class="cls-1" x1="25.84" y1="19.51" x2="24.06" y2="22.11"/></g></g></svg>
