<svg xmlns="http://www.w3.org/2000/svg" viewBox="0 0 324.5 355.36"><defs><style>.cls-1{fill:none;stroke:#515151;stroke-linecap:round;stroke-linejoin:round;stroke-width:16px;}</style></defs><g id="Layer_2" data-name="Layer 2"><g id="Large_Preview" data-name="Large Preview"><path class="cls-1" d="M34.42,45.74C14.06,49.69,7,66.8,8.11,87.65c4.19,81.16,121.52,137.09,121.47,214.17,0,20.88-14.56,40.95-34.92,44.9s-37.52-11-38.82-30.6c-.76-9.49,2.09-22.12,2.09-22.12l43.24-8.39"/><path class="cls-1" d="M226.13,8.57,34.42,45.74C48.81,43,62.14,51.14,68.79,62c5.42,8.86,5.75,20,4,26.83A1.09,1.09,0,0,0,74,90.23L260.54,53.92c5.11-11.87,4.11-25.8-3-33.89C250.14,11.6,238.57,6.16,226.13,8.57Z"/><path class="cls-1" d="M216.48,62.49c26,92,100.07,119.71,100,192,0,20.88-10,44.45-35.5,51.5-21.38,5.92-186.34,40.73-186.34,40.73"/><polygon class="cls-1" points="216 142.49 160 198.49 136 174.49 112 198.49 160 246.49 240 166.49 216 142.49"/></g></g></svg>
