<svg width="25" height="25" viewBox="0 0 25 25" fill="none" xmlns="http://www.w3.org/2000/svg">
<path d="M18.22 12.8C17.82 12.4 17.22 12.4 16.82 12.8L15.22 14.4C14.52 14.2 13.12 13.7 12.22 12.8C11.32 11.9 10.82 10.5 10.62 9.8L12.22 8.2C12.62 7.8 12.62 7.2 12.22 6.8L8.22002 2.8C7.82002 2.4 7.22002 2.4 6.82002 2.8L4.12002 5.5C3.72002 5.9 3.52002 6.4 3.52002 6.9C3.52002 8.3 3.92002 13.3 7.82002 17.2C11.72 21.1 16.62 21.5 18.12 21.5C18.62 21.5 19.12 21.3 19.52 20.9L22.22 18.2C22.62 17.8 22.62 17.2 22.22 16.8L18.22 12.8ZM18.12 19.5C16.92 19.5 12.62 19.1 9.22002 15.8C5.82002 12.4 5.52002 8.1 5.52002 6.9L7.52002 4.9L10.12 7.5L8.82002 8.8C8.62002 9 8.52002 9.4 8.52002 9.7C8.52002 9.8 9.12002 12.5 10.82 14.2C12.52 15.9 15.22 16.4 15.32 16.5C15.62 16.6 16.02 16.5 16.22 16.2L17.52 14.9L20.12 17.5L18.12 19.5Z" fill="#63B700"/>
</svg>
