<svg xmlns="http://www.w3.org/2000/svg" viewBox="0 0 27.61 28.85"><defs><style>.cls-1{fill:#f78300;fill-rule:evenodd;}</style></defs><title>Qiwi</title><g id="Слой_2" data-name="Слой 2"><g id="Слой_1-2" data-name="Слой 1"><g id="qiwi-6"><path id="Shape_340_copy-6" data-name="Shape 340 copy-6" class="cls-1" d="M23,19.93a4.71,4.71,0,0,0-1.5-2.61,3.82,3.82,0,0,0-.9-.65,3.65,3.65,0,0,0-.53-.25,3.21,3.21,0,0,0-1.5-.25A3,3,0,0,1,19.81,16a6.53,6.53,0,0,1,1.06.25l.84.47a10.29,10.29,0,0,0-.34-6.62,11.83,11.83,0,0,0-3.21-4.67A10.72,10.72,0,0,0,13,2.77a8.61,8.61,0,0,0-3.43,0A7.64,7.64,0,0,0,6.87,4.07,8,8,0,0,0,5,6.19a4.23,4.23,0,0,0-.37.62c-.1.24-.2.46-.31.68A9.37,9.37,0,0,0,3.91,9a9.92,9.92,0,0,0-.13,3.52,11.47,11.47,0,0,0,.85,3.08c.22.43.43.9.68,1.3a13.21,13.21,0,0,0,.81,1.15,11.33,11.33,0,0,0,8,3.8,1.08,1.08,0,0,0-.09-.44c0-.15,0-.32-.1-.47a4.61,4.61,0,0,1,0-1.05.4.4,0,0,1,.16.22.55.55,0,0,0,.16.18,3,3,0,0,0,.28.44,3.46,3.46,0,0,0,.72.71,4.89,4.89,0,0,0,.84.59,4.78,4.78,0,0,0,.93.47,7.78,7.78,0,0,0,2.28.56c.83.11,1.63.25,2.4.43a9.51,9.51,0,0,1,2,.84,9.9,9.9,0,0,1,.87.56,3.15,3.15,0,0,1,.41.31c.16.07.23.22.4.28A12.75,12.75,0,0,1,26.76,27a5.75,5.75,0,0,1,.53.9c.11.12.15.33.25.46a.7.7,0,0,1,0,.53c-.23,0-.19-.21-.28-.31a2,2,0,0,1-.22-.37c-.37-.39-.69-.8-1.09-1.15a8.36,8.36,0,0,0-1.25-1,9.6,9.6,0,0,0-3.05-1.4,11.51,11.51,0,0,0-4-.37,8.88,8.88,0,0,0-1.84.4A17.49,17.49,0,0,1,14,25a15.8,15.8,0,0,1-7.3-1.37,11.25,11.25,0,0,1-2.74-1.71,8,8,0,0,1-1.16-1.09,7.27,7.27,0,0,1-.93-1.27A11.91,11.91,0,0,1,1,18.12a12.33,12.33,0,0,1-.56-1.65A8,8,0,0,1,.1,14.6c0-.18-.1-.54-.1-.84a.16.16,0,0,0,0-.09,3.39,3.39,0,0,1,0-.9,9.89,9.89,0,0,1,.22-2A11.77,11.77,0,0,1,.72,9.07c.19-.56.43-1.06.65-1.59.15-.22.27-.48.4-.71s.3-.43.41-.69a2.6,2.6,0,0,0,.25-.31c0-.13.18-.2.22-.34a1.26,1.26,0,0,0,.25-.31,1,1,0,0,0,.25-.31c.37-.36.7-.77,1.09-1.12s.82-.67,1.21-1c.26-.12.44-.32.69-.44s.47-.26.65-.43a15.19,15.19,0,0,1,1.53-.72A12.1,12.1,0,0,1,9.94.49,13.2,13.2,0,0,1,13.84,0c.06,0,.08,0,.1,0a12.24,12.24,0,0,1,6.64,2.09,11.77,11.77,0,0,1,4.05,4.63,12.36,12.36,0,0,1-.78,12,4.12,4.12,0,0,1-.44.65,1.4,1.4,0,0,1-.22.32,1.58,1.58,0,0,1-.12.15.09.09,0,0,1-.06.06C23,20,23,20,23,19.93Zm-.75.81a1.48,1.48,0,0,1-.59-.93.82.82,0,0,1,0-.44l.06,0a.38.38,0,0,1,.31.06,1.94,1.94,0,0,1,.37.78.52.52,0,0,1-.15.56Zm-2.74-.53s0,0,0,0a1,1,0,0,1,.84,1,.67.67,0,0,1-.53.59,1,1,0,0,1-1-.92.87.87,0,0,1,.09-.45A.66.66,0,0,1,19.5,20.21Z"/></g></g></g></svg>
