<svg xmlns="http://www.w3.org/2000/svg" viewBox="0 0 45.71 41.19"><defs><style>.cls-1,.cls-2{fill:none;stroke:#505050;stroke-miterlimit:10;stroke-width:2px;}.cls-2{stroke-linecap:round;}</style></defs><g id="Layer_2" data-name="Layer 2"><g id="icons"><ellipse class="cls-1" cx="34.5" cy="17.2" rx="7.5" ry="7"/><line class="cls-1" x1="39" y1="23.2" x2="45" y2="29.2"/><path class="cls-1" d="M4.05,5.36C1.7,5.82.89,7.79,1,10.2c.49,9.37,14,15.83,14,24.74a5.28,5.28,0,0,1-4,5.18,3.76,3.76,0,0,1-4.48-3.53A10.35,10.35,0,0,1,6.77,34l5.79-1.12"/><path class="cls-1" d="M36.46,27.32a6.81,6.81,0,0,1,.72,3.32c-.22,2.4-1.68,4.73-4,5.19L11,40.12"/><path class="cls-1" d="M24.23,7.46a13,13,0,0,0,1.36,3.87"/><line class="cls-2" x1="21.01" y1="14.07" x2="10.01" y2="16.2"/><line class="cls-2" x1="24.01" y1="17.2" x2="13.01" y2="19.33"/><line class="cls-2" x1="21" y1="21.23" x2="16" y2="22.2"/><path class="cls-1" d="M26.19,1.07,4.05,5.36A3.89,3.89,0,0,1,8,7.24a4.23,4.23,0,0,1,.46,3.1.13.13,0,0,0,.15.16L30.17,6.3a3.82,3.82,0,0,0-.35-3.91A3.87,3.87,0,0,0,26.19,1.07Z"/></g></g></svg>
