<svg width="90.000000" height="90.000000" viewBox="0 0 90 90" fill="none" xmlns="http://www.w3.org/2000/svg" xmlns:xlink="http://www.w3.org/1999/xlink">
	<desc>
			Created with Pixso.
	</desc>
	<defs>
		<filter id="filter_1_262_dd" x="-0.049988" y="-0.910156" width="90.000000" height="90.000000" filterUnits="userSpaceOnUse" color-interpolation-filters="sRGB">
			<feFlood flood-opacity="0" result="BackgroundImageFix"/>
			<feBlend mode="normal" in="SourceGraphic" in2="BackgroundImageFix" result="shape"/>
			<feColorMatrix in="SourceAlpha" type="matrix" values="0 0 0 0 0 0 0 0 0 0 0 0 0 0 0 0 0 0 127 0" result="hardAlpha"/>
			<feOffset dx="0" dy="0"/>
			<feGaussianBlur stdDeviation="0"/>
			<feComposite in2="hardAlpha" operator="arithmetic" k2="-1" k3="1"/>
			<feColorMatrix type="matrix" values="0 0 0 0 0.93333 0 0 0 0 0.93333 0 0 0 0 0.93333 0 0 0 1 0"/>
			<feBlend mode="normal" in2="shape" result="effect_innerShadow_1"/>
		</filter>
		<clipPath id="clip1_263">
			<rect id="SVG" width="60.000000" height="60.000000" transform="translate(14.950012 14.089844)" fill="white" fill-opacity="0"/>
		</clipPath>
		<clipPath id="clip1_262">
			<rect id="div#iwo95hff1_1" rx="45.000000" width="90.000000" height="90.000000" transform="translate(-0.049988 -0.910156)" fill="white" fill-opacity="0"/>
		</clipPath>
	</defs>
	<g filter="url(#filter_1_262_dd)">
		<rect id="div#iwo95hff1_1" rx="45.000000" width="90.000000" height="90.000000" transform="translate(-0.049988 -0.910156)" fill="#FFFFFF" fill-opacity="0.002000"/>
		<g clip-path="url(#clip1_262)">
			<g clip-path="url(#clip1_263)">
				<path id="Vector" d="M30.48 58.59C28.07 55.68 27.09 52.86 28.23 51.23C30.01 48.69 36.26 50 42.19 54.15C48.12 58.31 51.49 63.72 49.71 66.27C47.93 68.81 41.68 67.5 35.75 63.35C35.43 63.13 35.11 62.9 34.81 " stroke="#FFB500" stroke-opacity="1.000000" stroke-width="2.809646" stroke-linecap="round"/>
				<path id="Vector" d="M28.43 50.94L24.65 56.34C22.87 58.88 26.23 64.31 32.16 68.46C38.1 72.62 44.35 73.93 46.13 71.38L49.71 66.27M63.86 32.9C64.82 29.24 64.52 26.26 62.79 25.27C60.1 23.72 54.99 27.54 51.37 33.81C47.75 40.08 47 46.43 49.68 47.98C52.36 49.53 57.48 45.7 61.1 39.43C61.31 39.07 61.51 38.72 61.7 " stroke="#FFB500" stroke-opacity="1.000000" stroke-width="2.809646"/>
				<path id="Vector" d="M62.79 25.27L68.2 28.39C70.89 29.94 70.13 36.28 66.51 42.55C62.89 48.82 57.77 52.65 55.09 51.1L49.68 47.98M26.03 23.46C25.07 19.8 25.37 16.83 27.11 15.83C29.79 14.28 34.91 18.11 38.53 24.38C42.15 30.65 42.9 36.99 40.22 38.54C37.54 40.1 32.41 36.27 28.79 30.01C28.57 29.63 28.36 29.25 28.16 " stroke="#FFB500" stroke-opacity="1.000000" stroke-width="2.809646"/>
				<path id="Vector" d="M27.11 15.83L21.7 18.96C19 20.51 19.76 26.85 23.38 33.13C27 39.41 32.12 43.22 34.8 41.67L40.21 " stroke="#FFB500" stroke-opacity="1.000000" stroke-width="2.809646" stroke-linecap="round"/>
			</g>
		</g>
	</g>
</svg>
