<?xml version="1.0" encoding="utf-8"?>
<!-- Generator: Adobe Illustrator 24.3.0, SVG Export Plug-In . SVG Version: 6.00 Build 0)  -->
<svg version="1.1" id="Layer_1" xmlns="http://www.w3.org/2000/svg" xmlns:xlink="http://www.w3.org/1999/xlink" x="0px" y="0px"
	 viewBox="0 0 24 24" style="enable-background:new 0 0 24 24;" xml:space="preserve">
<style type="text/css">
	.st0{fill:#FFC200;}
</style>
<path class="st0" d="M21.9,9.2c-0.1-0.4-0.5-0.6-0.9-0.7l-5.7-0.5l-2.5-5.5C12.8,2.2,12.4,2,12,2s-0.8,0.2-0.9,0.6L8.6,8.1L2.9,8.5
	c-0.4,0-0.7,0.3-0.9,0.7s0,0.8,0.2,1.1l4.2,4.1L5,20.8c-0.1,0.4,0.1,0.8,0.4,1C5.6,21.9,5.8,22,6,22c0.2,0,0.4-0.1,0.6-0.2l5.4-3.6
	l5.4,3.6c0.3,0.2,0.8,0.2,1.1,0c0.3-0.2,0.5-0.7,0.4-1.1l-1.8-6.4l4.5-4.1C22,10,22.1,9.6,21.9,9.2z"/>
</svg>

