<svg width="64" height="64" viewBox="0 0 64 64" fill="none" xmlns="http://www.w3.org/2000/svg">
<rect width="64" height="64" fill="#07151E"/>
<path d="M8 20C8 13.3726 13.3726 8 20 8H44C50.6274 8 56 13.3726 56 20V44C56 50.6274 50.6274 56 44 56H20C13.3726 56 8 50.6274 8 44V20Z" fill="#07151E"/>
<path d="M37.5611 23H20V41H24.8878V35.1439H34.2537L38.5269 41H44L39.2878 35.117C40.7513 34.9011 41.805 34.3884 42.4489 33.5788C43.0927 32.7692 43.4147 31.4737 43.4147 29.7466V28.3973C43.4147 27.3718 43.2977 26.5623 43.0927 25.9415C42.8878 25.3208 42.5366 24.7811 42.0391 24.2954C41.5122 23.8366 40.9268 23.5127 40.2245 23.2968C39.522 23.1079 38.6439 23 37.5611 23ZM36.7708 31.1769H24.8878V26.967H36.7708C37.444 26.967 37.9122 27.075 38.1464 27.2639C38.3805 27.4528 38.5269 27.8036 38.5269 28.3164V29.8276C38.5269 30.3673 38.3805 30.7182 38.1464 30.9071C37.9122 31.096 37.444 31.1769 36.7708 31.1769Z" fill="white"/>
<path d="M46.9997 23C48.6569 23 50 21.6569 50 20C50 18.3431 48.6569 17 46.9997 17C45.3431 17 44 18.3431 44 20C44 21.6569 45.3431 23 46.9997 23Z" fill="#F41240"/>
</svg>

