<svg width="20" height="20" viewBox="0 0 20 20" fill="none" xmlns="http://www.w3.org/2000/svg">
<g clip-path="url(#clip0_2_251)">
<path fill-rule="evenodd" clip-rule="evenodd" d="M19.642 7.80902L17.765 9.27704V9.31C17.765 9.386 17.765 9.46202 17.765 9.53802C17.7634 10.8156 17.4361 12.0718 16.8141 13.1877C16.1921 14.3037 15.2958 15.2427 14.21 15.916C14.5751 16.4896 14.8575 17.1117 15.049 17.764C16.4908 16.928 17.6879 15.7283 18.5209 14.2849C19.3539 12.8414 19.7936 11.2046 19.796 9.53802V9.52301V9.50702C19.7939 8.93679 19.741 8.36786 19.638 7.80701" fill="#62BC70"/>
<path fill-rule="evenodd" clip-rule="evenodd" d="M5.85699 15.762C5.55909 16.3706 5.15854 16.9234 4.67297 17.396C6.19194 18.431 7.9729 19.0148 9.80981 19.08C11.6467 19.1451 13.4645 18.6889 15.053 17.764C14.8615 17.1117 14.579 16.4896 14.214 15.916C12.9547 16.6996 11.4957 17.102 10.0128 17.0747C8.52986 17.0474 7.08652 16.5915 5.85699 15.762" fill="#9EF966"/>
<path fill-rule="evenodd" clip-rule="evenodd" d="M0.764984 7.33899C0.319476 9.21387 0.45469 11.1799 1.15268 12.9761C1.85067 14.7724 3.07838 16.3139 4.67294 17.396C5.15851 16.9234 5.55906 16.3706 5.85696 15.762C4.58393 14.907 3.60361 13.6823 3.04807 12.2529C2.49253 10.8236 2.38848 9.2583 2.74997 7.76801C2.11775 7.51239 1.44634 7.36726 0.764984 7.33899" fill="#E7FB5C"/>
<path fill-rule="evenodd" clip-rule="evenodd" d="M6.51703 0.687012C5.09811 1.25694 3.83583 2.15755 2.83533 3.3139C1.83482 4.47026 1.12503 5.84891 0.765015 7.33502C1.44637 7.36329 2.11778 7.50842 2.75 7.76404C3.06002 6.51121 3.68462 5.35819 4.56464 4.41412C5.44466 3.47006 6.55099 2.76614 7.77899 2.36902C7.44113 1.75076 7.01615 1.18428 6.51703 0.687012" fill="#5AEEEF"/>
<path fill-rule="evenodd" clip-rule="evenodd" d="M10.154 -0.0129775C8.90798 -0.0150617 7.67325 0.222603 6.51703 0.687035C7.01615 1.18431 7.44113 1.75078 7.77899 2.36904C8.86849 2.01671 10.0229 1.91182 11.158 2.06197C12.2932 2.21213 13.3806 2.61353 14.341 3.23702L15.999 1.93703C14.3159 0.665972 12.2631 -0.0195875 10.154 -0.0149917" fill="#49ABD9"/>
<path fill-rule="evenodd" clip-rule="evenodd" d="M10.154 12.05L18.834 5.36707C18.5384 4.76758 18.1811 4.2005 17.768 3.67505L10.154 9.53809V9.5379L6.59998 7.33789V9.83789V9.84387L10.154 12.0499V12.05Z" fill="#23A136"/>
</g>
<defs>
<clipPath id="clip0_2_251">
<rect width="19.313" height="19.093" fill="white" transform="translate(0.5)"/>
</clipPath>
</defs>
</svg>

