<svg xmlns="http://www.w3.org/2000/svg" viewBox="0 0 322.17 354.8"><defs><style>.cls-1{fill:none;stroke:#515051;stroke-linecap:round;stroke-linejoin:round;stroke-width:16px;}</style></defs><g id="Layer_2" data-name="Layer 2"><g id="Large_Preview" data-name="Large Preview"><path class="cls-1" d="M10.62,91.25C49.74,160.8,167.66,114.74,204.48,8l109.69,96.74C306.46,120.5,292,138.33,264,138.33L68.17,124.27"/><polyline class="cls-1" points="266.3 163.43 306.44 308.17 300.91 317.92 81.5 346.81 8 81.76 13.53 72.02 43.49 68.16"/><line class="cls-1" x1="109.74" y1="184.77" x2="211" y2="171.44"/><line class="cls-1" x1="120.63" y1="218.56" x2="171.26" y2="211.9"/><line class="cls-1" x1="221.48" y1="264.85" x2="248.54" y2="261.28"/><path class="cls-1" d="M114.63,286.87s20.92-23.43,24.67-13S144,287,149.6,286.24s18.72-13.42,18.72-13.42"/><path class="cls-1" d="M162.39,38.67,139.5,42.06c-3.74-11.23-16.18-19.14-27.79-17.66s-18,11.78-14.25,23l-21,2.67c-7.74,1-12,7.86-9.5,15.35L73.7,85.76l50.67-6.44"/></g></g></svg>
