<svg width="64" height="64" viewBox="0 0 64 64" fill="none" xmlns="http://www.w3.org/2000/svg">
<rect width="64" height="64" fill="#2787F5"/>
<path d="M33.2801 40.8711C23.5556 40.8711 18.0089 34.2044 17.7778 23.1111H22.6489C22.8089 31.2533 26.4001 34.7022 29.2445 35.4133V23.1111H33.8312V30.1333C36.6401 29.8311 39.5912 26.6311 40.5867 23.1111H45.1734C44.7982 24.9367 44.0504 26.6652 42.9767 28.1885C41.903 29.7119 40.5266 30.9973 38.9334 31.9644C40.7117 32.8481 42.2825 34.0988 43.542 35.6341C44.8015 37.1694 45.721 38.9543 46.2401 40.8711H41.1912C40.7253 39.2062 39.7783 37.7159 38.4691 36.5869C37.1598 35.4579 35.5464 34.7404 33.8312 34.5244V40.8711H33.2801V40.8711Z" fill="white"/>
</svg>

