<svg width="40" height="32" viewBox="0 0 40 32" fill="none" xmlns="http://www.w3.org/2000/svg">
<g clip-path="url(#clip0_1_710)">
<path fill-rule="evenodd" clip-rule="evenodd" d="M19.688 17.6099H20.88C21.0827 17.5869 21.2737 17.5033 21.428 17.3699C21.537 17.2164 21.5944 17.0322 21.592 16.8439C21.592 16.8439 21.568 15.2375 22.312 15.0007C23.048 14.7675 23.988 16.5535 24.988 17.2407C25.3632 17.5395 25.8379 17.6845 26.316 17.6463L28.988 17.6091C28.988 17.6091 30.384 17.5227 29.724 16.4227C29.668 16.3327 29.336 15.6087 27.736 14.1211C26.06 12.5643 26.288 12.8163 28.304 10.1211C29.532 8.48111 30.024 7.48111 29.872 7.05111C29.724 6.64271 28.82 6.75031 28.82 6.75031L25.812 6.76911C25.6787 6.75312 25.5437 6.77692 25.424 6.83751C25.3105 6.92162 25.2197 7.0327 25.16 7.16071C24.8485 7.97016 24.4767 8.75516 24.048 9.50911C22.708 11.7863 22.172 11.9071 21.956 11.7655C21.444 11.4355 21.572 10.4415 21.572 9.73511C21.572 7.52791 21.908 6.60751 20.92 6.36951C20.4607 6.25811 19.9882 6.21099 19.516 6.22951C18.444 6.21871 17.536 6.23271 17.024 6.48551C16.68 6.65311 16.416 7.02711 16.576 7.04871C16.9181 7.07915 17.2357 7.23895 17.464 7.49551C17.6724 7.91894 17.7753 8.3865 17.764 8.85831C17.764 8.85831 17.94 11.4583 17.348 11.7783C16.944 11.9995 16.388 11.5479 15.192 9.48151C14.7867 8.76289 14.4286 8.01865 14.12 7.25351C14.0653 7.12342 13.9803 7.00834 13.872 6.91791C13.7316 6.82477 13.5737 6.76121 13.408 6.73111L10.552 6.74991C10.3395 6.75112 10.1331 6.8213 9.96399 6.94991C9.92669 7.02945 9.9067 7.11601 9.90532 7.20385C9.90394 7.29169 9.92121 7.37883 9.95599 7.45951C9.95599 7.45951 12.192 12.7019 14.724 15.3439C17.048 17.7663 19.688 17.6075 19.688 17.6075V17.6099Z" fill="#323232"/>
</g>
<defs>
<clipPath id="clip0_1_710">
<rect width="40" height="40" fill="white" transform="translate(0 -8)"/>
</clipPath>
</defs>
</svg>
