<svg width="41" height="41" viewBox="0 0 41 41" fill="none" xmlns="http://www.w3.org/2000/svg">
<g opacity="0.6" filter="url(#filter0_i_1_701)">
<g clip-path="url(#clip0_1_701)">
<rect x="0.799988" y="0.90918" width="40" height="40" rx="20" fill="white" fill-opacity="0.01"/>
<g clip-path="url(#clip1_1_701)">
<path fill-rule="evenodd" clip-rule="evenodd" d="M21.064 30.3454C19.4163 30.3472 17.796 29.9237 16.36 29.1158L10.9004 30.8758L12.71 25.4994C11.6573 23.6606 11.2403 21.526 11.5237 19.4261C11.807 17.3263 12.7749 15.3786 14.2774 13.8846C15.7799 12.3906 17.7332 11.4338 19.8346 11.1624C21.9359 10.8909 24.0682 11.3201 25.901 12.3832C27.7338 13.4464 29.1648 15.0843 29.9725 17.0432C30.7801 19.0021 30.9192 21.1726 30.3682 23.2186C29.8173 25.2645 28.607 27.0717 26.9249 28.3601C25.2429 29.6486 23.1828 30.3464 21.064 30.3454ZM21.064 12.6186C19.7328 12.6226 18.4232 12.9556 17.2517 13.588C16.0803 14.2204 15.0833 15.1325 14.3496 16.2433C13.6158 17.354 13.1679 18.6289 13.0459 19.9545C12.9238 21.2801 13.1314 22.6154 13.65 23.8414C13.8794 24.3317 14.1434 24.805 14.44 25.2578L13.364 28.4934L16.604 27.4366C17.0197 27.7028 17.4589 27.9304 17.916 28.1166C19.0165 28.5811 20.2064 28.7954 21.3999 28.7439C22.5933 28.6925 23.7604 28.3767 24.8168 27.8192C25.8733 27.2618 26.7928 26.4767 27.5089 25.5206C28.2249 24.5645 28.7197 23.4613 28.9575 22.2907C29.1953 21.1201 29.1701 19.9113 28.8838 18.7516C28.5975 17.5919 28.0572 16.5102 27.3019 15.5848C26.5467 14.6594 25.5953 13.9132 24.5165 13.4002C23.4377 12.8873 22.2585 12.6203 21.064 12.6186ZM20.7664 24.1786C20.1867 23.8372 19.6478 23.431 19.16 22.9678C19.1594 22.968 19.1587 22.968 19.1581 22.968C19.1575 22.9679 19.1569 22.9676 19.1564 22.9673C19.1558 22.967 19.1554 22.9665 19.155 22.966C19.1547 22.9654 19.1545 22.9648 19.1544 22.9642H19.15V22.959C18.6266 22.5344 18.1535 22.0513 17.74 21.519C15.55 18.8574 16.5652 17.177 16.8556 16.8454C17.1904 16.459 18.2788 16.3254 18.3012 16.5182C18.3236 16.711 19.44 18.7702 19.4612 18.9582C19.4824 19.1462 18.8732 19.8494 18.6948 20.0542C18.5164 20.259 20.0948 21.8214 20.1212 21.847C20.154 21.873 21.91 23.233 22.0856 23.0334C22.2612 22.8338 22.8732 22.1322 23.0632 22.127C23.2532 22.1218 25.442 22.9618 25.6324 22.9566C25.8228 22.9514 25.8384 24.0514 25.4992 24.439C25.2132 24.7734 23.686 26.007 20.7664 24.1802V24.1786Z" fill="#323232"/>
</g>
</g>
</g>
<defs>
<filter id="filter0_i_1_701" x="0.799988" y="0.90918" width="40" height="40" filterUnits="userSpaceOnUse" color-interpolation-filters="sRGB">
<feFlood flood-opacity="0" result="BackgroundImageFix"/>
<feBlend mode="normal" in="SourceGraphic" in2="BackgroundImageFix" result="shape"/>
<feColorMatrix in="SourceAlpha" type="matrix" values="0 0 0 0 0 0 0 0 0 0 0 0 0 0 0 0 0 0 127 0" result="hardAlpha"/>
<feMorphology radius="1" operator="erode" in="SourceAlpha" result="effect1_innerShadow_1_701"/>
<feOffset/>
<feComposite in2="hardAlpha" operator="arithmetic" k2="-1" k3="1"/>
<feColorMatrix type="matrix" values="0 0 0 0 0.933333 0 0 0 0 0.933333 0 0 0 0 0.933333 0 0 0 1 0"/>
<feBlend mode="normal" in2="shape" result="effect1_innerShadow_1_701"/>
</filter>
<clipPath id="clip0_1_701">
<rect x="0.799988" y="0.90918" width="40" height="40" rx="20" fill="white"/>
</clipPath>
<clipPath id="clip1_1_701">
<rect width="40" height="40" fill="white" transform="translate(0.799988 0.90918)"/>
</clipPath>
</defs>
</svg>
