<?xml version="1.0" encoding="UTF-8"?>
<svg width="60px" height="60px" viewBox="0 0 60 60" version="1.1" xmlns="http://www.w3.org/2000/svg" xmlns:xlink="http://www.w3.org/1999/xlink">
    <!-- Generator: Sketch 52.4 (67378) - http://www.bohemiancoding.com/sketch -->
    <title>Whatsapp–rounded</title>
    <desc>Created with Sketch.</desc>
    <g id="Page-1" stroke="none" stroke-width="1" fill="none" fill-rule="evenodd">
        <g id="soc_rounded" transform="translate(-180.000000, -480.000000)">
            <g id="color_theme">
                <g id="Color" transform="translate(80.000000, 80.000000)">
                    <g id="Whatsapp–rounded" transform="translate(100.000000, 400.000000)">
                        <rect id="Rectangle" fill="#2CB742" x="0" y="0" width="60" height="60" rx="6"></rect>
                        <g id="whatsapp" transform="translate(10.000000, 10.000000)">
                            <path d="M0.0584610619,39.8246285 L3.44,29.6806897 C1.69448276,26.7448276 0.689655172,23.3186207 0.689655172,19.6551724 C0.689655172,8.8 9.48965517,0 20.3448276,0 C31.2,0 40,8.8 40,19.6551724 C40,30.5103448 31.2,39.3103448 20.3448276,39.3103448 C17.042069,39.3103448 13.9317241,38.4917241 11.2,37.0531034 L0.178774277,39.9529617 C0.125363671,39.9670148 0.0706734736,39.9351093 0.0566203013,39.8816987 C0.0516742512,39.8629007 0.052313919,39.8430687 0.0584610619,39.8246285 Z" id="Path" fill="#FFFFFF"></path>
                            <path d="M32.8848276,26.1965517 C31.9772414,24.4813793 28.6303448,22.52 28.6303448,22.52 C27.8731034,22.0882759 26.9593103,22.04 26.5275862,22.8096552 C26.5275862,22.8096552 25.44,24.1137931 25.1634483,24.3013793 C23.9,25.1572414 22.7296552,25.1241379 21.5482759,23.9427586 L18.8027586,21.1972414 L16.0572414,18.4517241 C14.8758621,17.2703448 14.8427586,16.1 15.6986207,14.8365517 C15.8862069,14.56 17.1903448,13.4724138 17.1903448,13.4724138 C17.96,13.04 17.9117241,12.1268966 17.48,11.3696552 C17.48,11.3696552 15.5186207,8.02275862 13.8034483,7.11517241 C13.0737931,6.72896552 12.177931,6.86413793 11.5944828,7.44758621 L10.382069,8.66 C6.53586207,12.5062069 8.42965517,16.8482759 12.2758621,20.6944828 L15.7910345,24.2096552 L19.3062069,27.7248276 C23.1524138,31.5710345 27.4944828,33.4648276 31.3406897,29.6186207 L32.5531034,28.4062069 C33.1365517,27.8213793 33.2710345,26.9255172 32.8848276,26.1965517 Z" id="Path" fill="#2CB742"></path>
                        </g>
                    </g>
                </g>
            </g>
        </g>
    </g>
</svg>
