<svg width="26" height="19" viewBox="0 0 26 19" fill="none" xmlns="http://www.w3.org/2000/svg">
<g clip-path="url(#clip0_2_276)">
<path fill-rule="evenodd" clip-rule="evenodd" d="M16.844 18.088C15.0529 18.0971 13.2994 17.5743 11.8057 16.5858C10.312 15.5973 9.14542 14.1877 8.45372 12.5355C7.76202 10.8833 7.57636 9.06295 7.92027 7.30515C8.26418 5.54735 9.12219 3.93127 10.3855 2.6616C11.6489 1.39193 13.2608 0.525869 15.0168 0.173195C16.7729 -0.179479 18.5941 -0.00293207 20.2497 0.680519C21.9053 1.36397 23.3208 2.52353 24.3167 4.01225C25.3126 5.50096 25.8442 7.25182 25.844 9.04295C25.8498 11.4358 24.9049 13.7331 23.2171 15.4293C21.5293 17.1255 19.2369 18.0819 16.844 18.088ZM16.844 5.525C16.1474 5.52144 15.4655 5.72472 14.8846 6.10911C14.3037 6.4935 13.85 7.04167 13.581 7.68418C13.3119 8.32669 13.2397 9.03457 13.3734 9.71818C13.5071 10.4018 13.8407 11.0303 14.332 11.5241C14.8233 12.018 15.4501 12.3548 16.133 12.492C16.8159 12.6292 17.5242 12.5606 18.1681 12.2948C18.812 12.0291 19.3624 11.5782 19.7498 10.9993C20.1372 10.4204 20.344 9.73951 20.344 9.04295C20.3452 8.58214 20.2556 8.12562 20.0803 7.69944C19.9051 7.27326 19.6476 6.8858 19.3226 6.55912C18.9976 6.23244 18.6114 5.97294 18.1861 5.79551C17.7609 5.61807 17.3048 5.52618 16.844 5.525V5.525Z" fill="#8942F8"/>
<path fill-rule="evenodd" clip-rule="evenodd" d="M4.57697 15.069L0.843994 3.01202H7.84399V15.069H4.57697Z" fill="#8942F8"/>
</g>
<defs>
<clipPath id="clip0_2_276">
<rect width="25" height="18.094" fill="white" transform="translate(0.843994)"/>
</clipPath>
</defs>
</svg>

