<svg width="90.000000" height="90.000000" viewBox="0 0 90 90" fill="none" xmlns="http://www.w3.org/2000/svg" xmlns:xlink="http://www.w3.org/1999/xlink">
	<desc>
			Created with Pixso.
	</desc>
	<defs>
		<filter id="filter_1_250_dd" x="-0.419983" y="-0.910156" width="90.000000" height="90.000000" filterUnits="userSpaceOnUse" color-interpolation-filters="sRGB">
			<feFlood flood-opacity="0" result="BackgroundImageFix"/>
			<feBlend mode="normal" in="SourceGraphic" in2="BackgroundImageFix" result="shape"/>
			<feColorMatrix in="SourceAlpha" type="matrix" values="0 0 0 0 0 0 0 0 0 0 0 0 0 0 0 0 0 0 127 0" result="hardAlpha"/>
			<feOffset dx="0" dy="0"/>
			<feGaussianBlur stdDeviation="0"/>
			<feComposite in2="hardAlpha" operator="arithmetic" k2="-1" k3="1"/>
			<feColorMatrix type="matrix" values="0 0 0 0 0.93333 0 0 0 0 0.93333 0 0 0 0 0.93333 0 0 0 1 0"/>
			<feBlend mode="normal" in2="shape" result="effect_innerShadow_1"/>
		</filter>
		<clipPath id="clip1_251">
			<rect id="SVG" width="60.000000" height="60.000000" transform="translate(14.580017 14.089844)" fill="white" fill-opacity="0"/>
		</clipPath>
		<clipPath id="clip1_250">
			<rect id="div#iwo95hff1_0" rx="45.000000" width="90.000000" height="90.000000" transform="translate(-0.419983 -0.910156)" fill="white" fill-opacity="0"/>
		</clipPath>
	</defs>
	<g filter="url(#filter_1_250_dd)">
		<rect id="div#iwo95hff1_0" rx="45.000000" width="90.000000" height="90.000000" transform="translate(-0.419983 -0.910156)" fill="#FFFFFF" fill-opacity="0.002000"/>
		<g clip-path="url(#clip1_250)">
			<g clip-path="url(#clip1_251)">
				<path id="Vector" d="M57.62 29.74L57.62 64.95L30.23 64.95L30.23 29.74L57.62 29.74ZM30.23 41.48L57.62 41.48M30.23 49.3L57.62 49.3M30.23 57.13L48.49 57.13M39.36 64.95L39.36 41.48M48.49 64.95L48.49 " stroke="#FFB500" stroke-opacity="1.000000" stroke-width="2.608696"/>
				<path id="Vector" d="M53.71 27.13L53.71 19.3C53.71 18.61 53.43 17.95 52.94 17.46C52.45 16.97 51.79 16.69 51.1 16.69L23.71 16.69L15.88 24.52L15.88 68.87C15.88 69.56 16.15 70.22 16.64 70.71C17.13 71.2 17.8 71.48 18.49 71.48L51.1 71.48C51.79 71.48 52.45 71.2 52.94 70.71C53.43 70.22 53.71 69.56 53.71 68.87L53.71 " stroke="#FFB500" stroke-opacity="1.000000" stroke-width="2.608696"/>
				<path id="Vector" d="M19.79 25.82L25.01 25.82L25.01 20.61M73.27 16.69L73.27 71.48L62.84 71.48L62.84 16.69L73.27 16.69ZM68.05 24.52L73.27 24.52M68.05 29.74L73.27 29.74M68.05 36.26L73.27 36.26M68.05 42.78L73.27 42.78M68.05 49.3L73.27 49.3M68.05 57.13L73.27 57.13M68.05 64.95L73.27 " stroke="#FFB500" stroke-opacity="1.000000" stroke-width="2.608696"/>
			</g>
		</g>
	</g>
</svg>
